<?xml version="1.0" standalone="no"?><!DOCTYPE svg PUBLIC "-//W3C//DTD SVG 1.1//EN" "http://www.w3.org/Graphics/SVG/1.1/DTD/svg11.dtd"><svg t="1529144507507" class="icon" style="" viewBox="0 0 1024 1024" version="1.1" xmlns="http://www.w3.org/2000/svg" p-id="2768" xmlns:xlink="http://www.w3.org/1999/xlink" width="64" height="64"><defs><style type="text/css"></style></defs><path d="M510.54537 64.984037h-0.557702c-0.174985 0-0.348947 0.033769-0.524956 0.033769-246.435669 0.559748-445.99675 200.48922-445.99675 447.045639 0 246.489904 199.560058 446.452121 445.997774 447.046662 0.176009 0 0.348947 0.033769 0.523932 0.033769h0.559749c246.873644 0 447.078385-200.207811 447.078385-447.080431 0-246.906389-200.204741-447.079408-447.080432-447.079408z m17.884323 267.549545c47.397496-1.292436 93.519953-7.543813 137.931442-18.372439 13.395078 52.706409 21.688975 113.447818 23.000854 180.021049H528.429693V332.533582z m0-35.765575V103.579053c48.216141 13.341866 97.05036 77.610612 128.189567 176.178535-41.304731 9.953699-84.161818 15.752776-128.189567 17.010419zM492.662071 103.159498v193.608509c-44.393069-1.257643-87.598081-7.161097-129.215943-17.291828 31.382754-99.159394 80.684624-163.66964 129.215943-176.316681z m0 229.340315v161.682379H330.612325c1.310855-66.678632 9.640568-127.487579 23.036669-180.230827 44.75839 10.93198 91.231841 17.289782 139.013077 18.548448z m-198.041472 161.682379H99.686908c3.945869-91.932806 38.193881-176.179558 93.031837-242.891959 39.818891 21.934568 82.063017 39.886429 126.31794 53.30095-14.443967 57.037041-23.106254 121.340579-24.416086 189.591009z m0 35.763529c1.309832 68.215638 9.972119 132.520199 24.415063 189.553147-44.236504 13.45136-86.49905 31.403221-126.317941 53.338812-54.837956-66.713424-89.083921-150.963247-93.031836-242.891959h194.934714z m35.991726 0h162.048723v161.472601c-47.781236 1.257643-94.272084 7.650237-139.030474 18.619057-13.393032-52.705386-21.706371-113.482611-23.018249-180.091658z m162.049746 197.204407V920.968415c-48.567135-12.678764-97.900727-77.260641-129.268132-176.525435 41.635259-10.131755 84.857667-16.034185 129.268132-17.292852z m35.767622 193.398732V727.150128c44.044122 1.257643 86.900186 7.093559 128.223336 17.045212-31.125905 98.637508-79.986729 163.009607-128.223336 176.35352z m0-229.130538V529.945721h160.932296c-1.310855 66.503647-9.605775 127.172401-22.946619 179.848111-44.444235-10.829649-90.570785-17.117866-137.985677-18.37551z m196.925044-161.472601h196.051142c-3.943822 91.930759-38.175461 176.144766-93.01444 242.85512-40.143279-22.073738-82.743516-40.167838-127.380133-53.647851 14.406105-56.967456 23.034623-121.129778 24.343431-189.207269z m0-35.763529c-1.308809-68.180845-9.954723-132.380006-24.378223-189.381231 44.602847-13.481036 87.195921-31.538297 127.311571-53.614082 54.889121 66.712401 89.153506 150.993946 93.117794 242.995313H725.354737z m78.292134-270.311448c-35.576263 18.931165-73.137741 34.579563-112.364137 46.455031-20.907169-67.273173-50.263777-122.17969-84.962043-158.225651 76.143191 18.270109 144.129608 57.667398 197.32618 111.77062zM413.357887 112.450095c-34.527374 35.976376-63.74379 90.6373-84.57728 157.561525a622.603027 622.603027 0 0 1-111.332645-46.140876c52.844555-53.754275 120.326483-93.048209 195.909925-111.420649zM217.324142 800.11493a621.354594 621.354594 0 0 1 111.421672-46.174646c20.834514 66.991764 50.051953 121.723296 84.613097 157.737534-75.636654-18.408255-143.153374-57.738006-196.034769-111.562888z m388.977106 111.87602c34.754548-36.044938 64.111157-90.986247 85.032652-158.365844a622.548792 622.548792 0 0 1 112.417349 46.526663c-53.196573 54.140061-121.235179 93.607958-197.450001 111.839181z" p-id="2769" fill="#1296db"></path></svg>